<?xml version="1.0" encoding="iso-8859-1"?>
<!-- Uploaded to: SVG Repo, www.svgrepo.com, Generator: SVG Repo Mixer Tools -->
<svg fill="#AE8693" height="800px" width="800px" version="1.1" id="Layer_1" xmlns="http://www.w3.org/2000/svg" xmlns:xlink="http://www.w3.org/1999/xlink" 
	 viewBox="0 0 511.999 511.999" xml:space="preserve">
<g>
	<g>
		<path d="M493.369,396.731h-18.943V220.965c5.214,4.964,8.058,8.236,8.113,8.3c5.998,7.03,16.559,7.865,23.589,1.866
			c7.03-5.998,7.865-16.559,1.866-23.589c-2.042-2.394-37.029-42.644-92.262-61.592v-32.158c0-17.639-14.35-31.989-31.989-31.989
			h-58.002c-17.639,0-31.99,14.351-31.99,31.989v32.293c0,1.284,0.158,2.529,0.432,3.729c-29.306,12.665-56.264,32.704-82.55,52.657
			v-39.559c6.27,6.445,16.559,6.805,23.254,0.702c6.827-6.228,7.313-16.812,1.084-23.638c-2.442-2.678-60.825-65.306-147.049-41.479
			c-24.096,6.657-44.49,23.253-57.425,46.73c-11.527,20.919-16.573,45.711-14.208,69.808c1.748,17.802,7.447,33.8,16.573,46.725
			v134.972H16.732C7.492,396.732,0,404.223,0,413.464s7.492,16.732,16.732,16.732h476.637c9.241,0,16.732-7.492,16.732-16.732
			S502.61,396.731,493.369,396.731z M61.855,243.209c-8.405-11.467-10.667-25.362-11.264-31.443
			c-1.694-17.276,2.026-36.638,11.264-52.342V243.209z M92.017,396.732H67.324v-108.3c7.629,3.074,15.897,4.995,24.693,5.659
			V396.732z M120.012,179.093v78.953c-8.266,2.221-16.49,3.236-24.693,2.716V131.527c6.405-2.087,15.535-3.958,24.693-4.615V179.093
			z M150.174,396.731h-24.693v-105.55c7.631-1.849,15.849-4.615,24.693-8.538V396.731z M178.169,227.382
			c-8.306,5.878-16.53,11.327-24.693,16.051v-64.34v-49.306c8.314,2.059,16.552,5.123,24.693,9.185V227.382z M208.332,396.731
			h-24.694V264.095c8.322-5.406,16.545-11.235,24.694-17.241V396.731z M266.49,396.731h-24.692V221.63
			c8.162-6.115,16.39-12.122,24.692-17.758V396.731z M324.647,396.732h-24.693V188.08c-0.001-1.31-0.166-2.579-0.451-3.802
			c8.298-4.085,16.677-7.473,25.143-9.919V396.732z M327.217,115.269h55.052v14.085h-55.052V115.269z M382.803,396.732H358.11
			V173.815c0-1.418-0.195-2.786-0.527-4.101c8.409-0.071,16.819,0.648,25.219,2.155V396.732z M440.961,396.731h-24.694V182.066
			c8.266,3.564,16.501,7.9,24.694,12.997V396.731z"/>
	</g>
</g>
</svg>