<svg width="785.9px" height="131.6px" xmlns="http://www.w3.org/2000/svg" viewBox="-142.95 9.200000000000003 785.9 131.6" style="background: rgba(0, 0, 0, 0);" preserveAspectRatio="xMidYMid"><defs><filter id="editing-extrude-glow"><feFlood flood-color="rgba(0%,0%,0%,0)" result="flood-1"></feFlood><feMorphology operator="erode" radius="1" in="SourceAlpha" result="erode"></feMorphology><feComposite operator="in" in="flood-1" in2="erode" result="comp1"></feComposite><feConvolveMatrix order="0,0" divisor="1" in="comp1" result="convolve" kernelMatrix=""></feConvolveMatrix><feOffset dx="0" dy="0" in="convolve" result="extrude"></feOffset><feComposite operator="in" in="flood-1" in2="extrude" result="comp-extrude"></feComposite><feFlood flood-color="rgba(0%,0%,0%,0)" result="flood-2"></feFlood><feComposite operator="in" in="flood-2" in2="SourceAlpha" result="comp2"></feComposite><feMorphology operator="dilate" radius="1" in="comp2" result="dilate"></feMorphology><feOffset dx="0" dy="0" in="dilate" result="offset"></feOffset><feGaussianBlur in="offset" stdDeviation="5.8" result="blur"></feGaussianBlur><feComponentTransfer in="blur" result="shadow"><feFuncA type="linear" slope="0.8" intercept="-0.2"></feFuncA></feComponentTransfer><feMerge><feMergeNode in="shadow"></feMergeNode><feMergeNode in="comp-extrude"></feMergeNode><feMergeNode in="SourceGraphic"></feMergeNode></feMerge></filter></defs><g filter="url(#editing-extrude-glow)"><g transform="translate(-31.935028553009033, 98.56000137329102)"><path d="M31.81-12.63L31.81-12.63L31.81-12.63Q31.81-10.13 30.78-7.78L30.78-7.78L30.78-7.78Q29.75-5.44 27.88-3.66L27.88-3.66L27.88-3.66Q26-1.88 23.25-0.81L23.25-0.81L23.25-0.81Q20.50 0.25 17 0.25L17 0.25L17 0.25Q15.50 0.25 13.91 0.09L13.91 0.09L13.91 0.09Q12.31-0.06 10.69-0.44L10.69-0.44L10.69-0.44Q9.06-0.81 7.59-1.47L7.59-1.47L7.59-1.47Q6.13-2.13 5.06-3.06L5.06-3.06L6.38-8.44L6.38-8.44Q7.25-7.94 8.59-7.47L8.59-7.47L8.59-7.47Q9.94-7 11.38-6.59L11.38-6.59L11.38-6.59Q12.81-6.19 14.25-5.94L14.25-5.94L14.25-5.94Q15.69-5.69 16.94-5.69L16.94-5.69L16.94-5.69Q20.75-5.69 22.78-7.47L22.78-7.47L22.78-7.47Q24.81-9.25 24.81-12.75L24.81-12.75L24.81-12.75Q24.81-14.88 23.38-16.38L23.38-16.38L23.38-16.38Q21.94-17.88 19.78-19.09L19.78-19.09L19.78-19.09Q17.63-20.31 15.13-21.53L15.13-21.53L15.13-21.53Q12.63-22.75 10.44-24.41L10.44-24.41L10.44-24.41Q8.25-26.06 6.81-28.31L6.81-28.31L6.81-28.31Q5.38-30.56 5.38-33.94L5.38-33.94L5.38-33.94Q5.38-37 6.50-39.38L6.50-39.38L6.50-39.38Q7.63-41.75 9.53-43.41L9.53-43.41L9.53-43.41Q11.44-45.06 13.97-45.94L13.97-45.94L13.97-45.94Q16.50-46.81 19.31-46.81L19.31-46.81L19.31-46.81Q22.19-46.81 25.13-46.28L25.13-46.28L25.13-46.28Q28.06-45.75 29.88-44.56L29.88-44.56L29.88-44.56Q29.50-43.75 29-42.78L29-42.78L29-42.78Q28.50-41.81 28.06-40.97L28.06-40.97L28.06-40.97Q27.63-40.13 27.31-39.56L27.31-39.56L27.31-39.56Q27-39 26.94-38.94L26.94-38.94L26.94-38.94Q26.56-39.13 26.09-39.44L26.09-39.44L26.09-39.44Q25.63-39.75 24.75-40.06L24.75-40.06L24.75-40.06Q23.88-40.38 22.44-40.50L22.44-40.50L22.44-40.50Q21-40.63 18.75-40.44L18.75-40.44L18.75-40.44Q17.50-40.31 16.38-39.72L16.38-39.72L16.38-39.72Q15.25-39.13 14.38-38.25L14.38-38.25L14.38-38.25Q13.50-37.38 13-36.28L13-36.28L13-36.28Q12.50-35.19 12.50-34.19L12.50-34.19L12.50-34.19Q12.50-31.69 13.94-30.16L13.94-30.16L13.94-30.16Q15.38-28.63 17.50-27.47L17.50-27.47L17.50-27.47Q19.63-26.31 22.13-25.22L22.13-25.22L22.13-25.22Q24.63-24.13 26.78-22.56L26.78-22.56L26.78-22.56Q28.94-21 30.38-18.66L30.38-18.66L30.38-18.66Q31.81-16.31 31.81-12.63ZM67.31-46.06L74.81-46.06L74.81 0L67.31 0L67.31-20.75L47.38-20.75L47.38 0L39.75 0L39.75-46.06L47.38-46.06L47.38-25.88L67.31-25.88L67.31-46.06ZM92.44 0L84.63 0L100.75-46L108.19-46L124.19 0L116.44 0L113.13-9.56L95.81-9.56L92.44 0ZM104.50-34.50L97.56-14.63L111.31-14.63L104.50-34.50ZM159.56-46.06L167.19-46.06L167.19 0L159.56 0L141.50-31.75L141.50 0L133.88 0L133.88-46.06L141.50-46.06L159.56-14.31L159.56-46.06ZM204.31-46.06L211.94-46.06L211.94 0L204.31 0L186.25-31.75L186.25 0L178.63 0L178.63-46.06L186.25-46.06L204.31-14.31L204.31-46.06ZM260.81-23.25L260.81-23.25L260.81-23.25Q260.81-17.44 259.34-13L259.34-13L259.34-13Q257.88-8.56 255.28-5.63L255.28-5.63L255.28-5.63Q252.69-2.69 249.22-1.19L249.22-1.19L249.22-1.19Q245.75 0.31 241.63 0.31L241.63 0.31L241.63 0.31Q237.50 0.31 234.03-1.19L234.03-1.19L234.03-1.19Q230.56-2.69 227.97-5.63L227.97-5.63L227.97-5.63Q225.38-8.56 223.91-13L223.91-13L223.91-13Q222.44-17.44 222.44-23.25L222.44-23.25L222.44-23.25Q222.44-29.06 223.91-33.47L223.91-33.47L223.91-33.47Q225.38-37.88 227.97-40.81L227.97-40.81L227.97-40.81Q230.56-43.75 234.03-45.28L234.03-45.28L234.03-45.28Q237.50-46.81 241.63-46.81L241.63-46.81L241.63-46.81Q245.75-46.81 249.22-45.28L249.22-45.28L249.22-45.28Q252.69-43.75 255.28-40.81L255.28-40.81L255.28-40.81Q257.88-37.88 259.34-33.47L259.34-33.47L259.34-33.47Q260.81-29.06 260.81-23.25ZM241.44-5.81L241.44-5.81L241.44-5.81Q243.75-5.81 245.84-6.72L245.84-6.72L245.84-6.72Q247.94-7.63 249.59-9.69L249.59-9.69L249.59-9.69Q251.25-11.75 252.19-15.09L252.19-15.09L252.19-15.09Q253.13-18.44 253.19-23.25L253.19-23.25L253.19-23.25Q253.13-27.94 252.22-31.22L252.22-31.22L252.22-31.22Q251.31-34.50 249.72-36.63L249.72-36.63L249.72-36.63Q248.13-38.75 246.09-39.69L246.09-39.69L246.09-39.69Q244.06-40.63 241.81-40.63L241.81-40.63L241.81-40.63Q239.50-40.63 237.41-39.75L237.41-39.75L237.41-39.75Q235.31-38.88 233.66-36.78L233.66-36.78L233.66-36.78Q232-34.69 231.06-31.38L231.06-31.38L231.06-31.38Q230.13-28.06 230.06-23.25L230.06-23.25L230.06-23.25Q230.13-18.56 231.03-15.25L231.03-15.25L231.03-15.25Q231.94-11.94 233.53-9.84L233.53-9.84L233.53-9.84Q235.13-7.75 237.16-6.78L237.16-6.78L237.16-6.78Q239.19-5.81 241.44-5.81ZM297.06-46.06L304.69-46.06L304.69 0L297.06 0L279-31.75L279 0L271.38 0L271.38-46.06L279-46.06L297.06-14.31L297.06-46.06ZM354.56-14.56L368.19-46.06L375.81-46.06L375.81 0L368.19 0L368.19-31.69L357.88-6.06L351.25-6.06L340.88-31.69L340.88 0L333.25 0L333.25-46.06L340.88-46.06L354.56-14.56ZM424.75-23.25L424.75-23.25L424.75-23.25Q424.75-17.44 423.28-13L423.28-13L423.28-13Q421.81-8.56 419.22-5.63L419.22-5.63L419.22-5.63Q416.63-2.69 413.16-1.19L413.16-1.19L413.16-1.19Q409.69 0.31 405.56 0.31L405.56 0.31L405.56 0.31Q401.44 0.31 397.97-1.19L397.97-1.19L397.97-1.19Q394.50-2.69 391.91-5.63L391.91-5.63L391.91-5.63Q389.31-8.56 387.84-13L387.84-13L387.84-13Q386.38-17.44 386.38-23.25L386.38-23.25L386.38-23.25Q386.38-29.06 387.84-33.47L387.84-33.47L387.84-33.47Q389.31-37.88 391.91-40.81L391.91-40.81L391.91-40.81Q394.50-43.75 397.97-45.28L397.97-45.28L397.97-45.28Q401.44-46.81 405.56-46.81L405.56-46.81L405.56-46.81Q409.69-46.81 413.16-45.28L413.16-45.28L413.16-45.28Q416.63-43.75 419.22-40.81L419.22-40.81L419.22-40.81Q421.81-37.88 423.28-33.47L423.28-33.47L423.28-33.47Q424.75-29.06 424.75-23.25ZM405.38-5.81L405.38-5.81L405.38-5.81Q407.69-5.81 409.78-6.72L409.78-6.72L409.78-6.72Q411.88-7.63 413.53-9.69L413.53-9.69L413.53-9.69Q415.19-11.75 416.13-15.09L416.13-15.09L416.13-15.09Q417.06-18.44 417.13-23.25L417.13-23.25L417.13-23.25Q417.06-27.94 416.16-31.22L416.16-31.22L416.16-31.22Q415.25-34.50 413.66-36.63L413.66-36.63L413.66-36.63Q412.06-38.75 410.03-39.69L410.03-39.69L410.03-39.69Q408-40.63 405.75-40.63L405.75-40.63L405.75-40.63Q403.44-40.63 401.34-39.75L401.34-39.75L401.34-39.75Q399.25-38.88 397.59-36.78L397.59-36.78L397.59-36.78Q395.94-34.69 395-31.38L395-31.38L395-31.38Q394.06-28.06 394-23.25L394-23.25L394-23.25Q394.06-18.56 394.97-15.25L394.97-15.25L394.97-15.25Q395.88-11.94 397.47-9.84L397.47-9.84L397.47-9.84Q399.06-7.75 401.09-6.78L401.09-6.78L401.09-6.78Q403.13-5.81 405.38-5.81ZM461.38-12.63L461.38-12.63L461.38-12.63Q461.38-10.13 460.34-7.78L460.34-7.78L460.34-7.78Q459.31-5.44 457.44-3.66L457.44-3.66L457.44-3.66Q455.56-1.88 452.81-0.81L452.81-0.81L452.81-0.81Q450.06 0.25 446.56 0.25L446.56 0.25L446.56 0.25Q445.06 0.25 443.47 0.09L443.47 0.09L443.47 0.09Q441.88-0.06 440.25-0.44L440.25-0.44L440.25-0.44Q438.63-0.81 437.16-1.47L437.16-1.47L437.16-1.47Q435.69-2.13 434.63-3.06L434.63-3.06L435.94-8.44L435.94-8.44Q436.81-7.94 438.16-7.47L438.16-7.47L438.16-7.47Q439.50-7 440.94-6.59L440.94-6.59L440.94-6.59Q442.38-6.19 443.81-5.94L443.81-5.94L443.81-5.94Q445.25-5.69 446.50-5.69L446.50-5.69L446.50-5.69Q450.31-5.69 452.34-7.47L452.34-7.47L452.34-7.47Q454.38-9.25 454.38-12.75L454.38-12.75L454.38-12.75Q454.38-14.88 452.94-16.38L452.94-16.38L452.94-16.38Q451.50-17.88 449.34-19.09L449.34-19.09L449.34-19.09Q447.19-20.31 444.69-21.53L444.69-21.53L444.69-21.53Q442.19-22.75 440-24.41L440-24.41L440-24.41Q437.81-26.06 436.38-28.31L436.38-28.31L436.38-28.31Q434.94-30.56 434.94-33.94L434.94-33.94L434.94-33.94Q434.94-37 436.06-39.38L436.06-39.38L436.06-39.38Q437.19-41.75 439.09-43.41L439.09-43.41L439.09-43.41Q441-45.06 443.53-45.94L443.53-45.94L443.53-45.94Q446.06-46.81 448.88-46.81L448.88-46.81L448.88-46.81Q451.75-46.81 454.69-46.28L454.69-46.28L454.69-46.28Q457.63-45.75 459.44-44.56L459.44-44.56L459.44-44.56Q459.06-43.75 458.56-42.78L458.56-42.78L458.56-42.78Q458.06-41.81 457.63-40.97L457.63-40.97L457.63-40.97Q457.19-40.13 456.88-39.56L456.88-39.56L456.88-39.56Q456.56-39 456.50-38.94L456.50-38.94L456.50-38.94Q456.13-39.13 455.66-39.44L455.66-39.44L455.66-39.44Q455.19-39.75 454.31-40.06L454.31-40.06L454.31-40.06Q453.44-40.38 452-40.50L452-40.50L452-40.50Q450.56-40.63 448.31-40.44L448.31-40.44L448.31-40.44Q447.06-40.31 445.94-39.72L445.94-39.72L445.94-39.72Q444.81-39.13 443.94-38.25L443.94-38.25L443.94-38.25Q443.06-37.38 442.56-36.28L442.56-36.28L442.56-36.28Q442.06-35.19 442.06-34.19L442.06-34.19L442.06-34.19Q442.06-31.69 443.50-30.16L443.50-30.16L443.50-30.16Q444.94-28.63 447.06-27.47L447.06-27.47L447.06-27.47Q449.19-26.31 451.69-25.22L451.69-25.22L451.69-25.22Q454.19-24.13 456.34-22.56L456.34-22.56L456.34-22.56Q458.50-21 459.94-18.66L459.94-18.66L459.94-18.66Q461.38-16.31 461.38-12.63ZM476.94-46.06L476.94 0L469.31 0L469.31-46.06L476.94-46.06ZM517.44-40.38L496.25-40.38L496.25-25.88L515.50-25.88L515.50-20.75L496.25-20.75L496.25-5.69L517.44-5.69L517.44 0L488.63 0L488.63-46.06L517.44-46.06L517.44-40.38ZM558.81 0L550.88 0L542.19-16.69L542.19-16.69Q542-16.69 541.69-16.66L541.69-16.66L541.69-16.66Q541.38-16.63 540.72-16.63L540.72-16.63L540.72-16.63Q540.06-16.63 538.72-16.63L538.72-16.63L538.72-16.63Q537.38-16.63 535.06-16.63L535.06-16.63L535.06 0L527.56 0L527.56-46.06L540.81-46.06L540.81-46.06Q543.75-46.06 546.63-45.13L546.63-45.13L546.63-45.13Q549.50-44.19 551.78-42.31L551.78-42.31L551.78-42.31Q554.06-40.44 555.47-37.78L555.47-37.78L555.47-37.78Q556.88-35.13 556.88-31.81L556.88-31.81L556.88-31.81Q556.88-26.81 554.56-23.31L554.56-23.31L554.56-23.31Q552.25-19.81 548.31-18.13L548.31-18.13L558.81 0ZM535.06-40.38L535.06-22.13L541.88-22.13L541.88-22.13Q543.25-22.13 544.63-22.59L544.63-22.59L544.63-22.59Q546-23.06 547.13-24.13L547.13-24.13L547.13-24.13Q548.25-25.19 548.94-27.09L548.94-27.09L548.94-27.09Q549.63-29 549.63-31.81L549.63-31.81L549.63-31.81Q549.63-32.94 549.31-34.41L549.31-34.41L549.31-34.41Q549-35.88 548.03-37.22L548.03-37.22L548.03-37.22Q547.06-38.56 545.31-39.47L545.31-39.47L545.31-39.47Q543.56-40.38 540.69-40.38L540.69-40.38L535.06-40.38Z" fill="#a18167"></path></g></g><style>text {
  font-size: 64px;
  font-family: Arial Black;
  dominant-baseline: central;
  text-anchor: middle;
}</style></svg>