<svg width="31" height="30" viewBox="0 0 31 30" fill="none" xmlns="http://www.w3.org/2000/svg">
<g clip-path="url(#clip0_25_97)">
<path d="M26.8356 4.81671H4.16443C2.14396 4.81671 0.5 6.46067 0.5 8.48115V21.5188C0.5 23.5393 2.14396 25.1833 4.16443 25.1833H26.8356C28.856 25.1833 30.5 23.5393 30.5 21.5188V8.48155C30.5004 6.46067 28.8564 4.81671 26.8356 4.81671ZM25.045 7.20734L15.5 13.3568L5.95502 7.20734H25.045ZM26.8356 22.793H4.16443C3.46199 22.793 2.89063 22.2213 2.89063 21.5192V8.54928L14.7625 16.1834C14.7784 16.1933 14.7956 16.2001 14.8119 16.2093C14.829 16.2188 14.8466 16.228 14.8641 16.2367C14.9561 16.2842 15.051 16.3224 15.1478 16.3475C15.1577 16.3503 15.1677 16.3515 15.1777 16.3539C15.284 16.379 15.3916 16.3945 15.4992 16.3945H15.5C15.5008 16.3945 15.5016 16.3945 15.5016 16.3945C15.6092 16.3945 15.7167 16.3794 15.8231 16.3539C15.8331 16.3515 15.8431 16.3503 15.853 16.3475C15.9498 16.3224 16.0443 16.2842 16.1367 16.2367C16.1542 16.228 16.1718 16.2188 16.1889 16.2093C16.2052 16.2001 16.2224 16.1933 16.2383 16.1834L28.1102 8.54928V21.5188C28.1098 22.2213 27.538 22.793 26.8356 22.793Z" fill="#A18167"/>
</g>
<defs>
<clipPath id="clip0_25_97">
<rect width="30" height="30" fill="#A18167" transform="translate(0.5)"/>
</clipPath>
</defs>
</svg>
